<?xml version="1.0" standalone="no"?>
<!DOCTYPE svg PUBLIC "-//W3C//DTD SVG 20010904//EN"
 "http://www.w3.org/TR/2001/REC-SVG-20010904/DTD/svg10.dtd">
<svg version="1.0" xmlns="http://www.w3.org/2000/svg"
 width="100.000000pt" height="100.000000pt" viewBox="0 0 100.000000 100.000000"
 preserveAspectRatio="xMidYMid meet">
<metadata>
Created by potrace 1.11, written by Peter Selinger 2001-2013
</metadata>
<g transform="translate(0.000000,100.000000) scale(0.100000,-0.100000)"
fill="#000000" stroke="none">
<path d="M887 923 c-1 -1 -33 -4 -72 -8 -38 -3 -90 -8 -115 -10 -25 -2 -79 -7
-120 -10 -197 -15 -269 -25 -315 -43 -152 -59 -251 -193 -262 -352 -17 -252
178 -449 429 -435 116 7 190 39 265 114 47 47 96 138 106 201 4 19 9 69 13
110 11 132 65 272 150 393 l34 47 -56 -2 c-30 -2 -56 -4 -57 -5z m-235 -207
c25 -17 45 -51 42 -73 -1 -7 -2 -22 -3 -33 -1 -23 -45 -69 -69 -72 -9 -1 -24
-2 -32 -4 -8 -1 -50 -2 -92 -3 -100 -1 -104 -21 -5 -22 91 -1 116 -8 139 -40
29 -38 26 -85 -6 -117 -23 -24 -36 -28 -113 -32 l-87 -5 -9 -41 c-11 -57 -45
-87 -98 -87 -35 0 -48 6 -71 32 l-28 31 0 177 c0 171 1 178 25 220 35 59 72
76 180 83 139 8 198 5 227 -14z"/>
</g>
</svg>
