<svg xmlns="http://www.w3.org/2000/svg" xmlns:xlink="http://www.w3.org/1999/xlink" viewBox="0 0 170 152"><title>OF_red-shadow</title><g style="isolation:isolate"><g id="52e1885b-6558-47c3-89fd-81a4954716f1" data-name="Layer 2"><g id="99042b5c-23e8-4298-bb72-afbd83bc6291" data-name="Layer 1"><image width="170" height="152" opacity="0.5" xlink:href="OF_red-shadow1.png" style="mix-blend-mode:multiply"/><path d="M59.3,16.57a56.7,56.7,0,0,0,5.82,113.09c31.31,0,55.31-21.06,56.7-56.7,1.43-37,26.09-64.13,26.09-64.13Zm42.13,43.62A14.34,14.34,0,0,1,91.26,64.4H70a2.84,2.84,0,0,0-2.84,2.84v.46H86.77a13.18,13.18,0,1,1,0,26.36H70a2.84,2.84,0,0,0-2.84,2.83V99a14.18,14.18,0,1,1-28.35,0V60.1A23.57,23.57,0,0,1,61.68,36.54l29.16-.92a14.39,14.39,0,0,1,10.59,24.57Z" fill="#d4000d"/></g></g></g></svg>