<svg xmlns="http://www.w3.org/2000/svg" viewBox="0 0 139.48 120.83"><title>OF_red</title><g id="d7844b9b-96a2-4b56-a8b2-881b43d6383a" data-name="Layer 2"><g id="7af4d2ea-2760-48f9-ab8d-a729eae0cc6a" data-name="Layer 1"><path d="M50.87,7.74a56.7,56.7,0,0,0,5.82,113.09c31.31,0,55.31-21.06,56.7-56.7C114.82,27.14,139.48,0,139.48,0ZM93,51.36a14.34,14.34,0,0,1-10.17,4.21H61.55a2.84,2.84,0,0,0-2.84,2.84v.46H78.34a13.18,13.18,0,1,1,0,26.36H61.55a2.84,2.84,0,0,0-2.84,2.83v2.1a14.18,14.18,0,1,1-28.35,0V51.27A23.57,23.57,0,0,1,53.25,27.71l29.16-.92A14.39,14.39,0,0,1,93,51.36Z" fill="#d4000d"/></g></g></svg>