<svg xmlns="http://www.w3.org/2000/svg" xmlns:xlink="http://www.w3.org/1999/xlink" viewBox="0 0 209.95 230.56"><title>OF_white-redgreensplaccs</title><g style="isolation:isolate"><g id="08a85869-d149-4a93-842c-d43f9d08258b" data-name="Layer 2"><g id="b862ec2e-2d5f-4e92-b2db-d39818af0f4b" data-name="Layer 1"><path d="M33,217.9c.3,0,.1-.25.09-.4,1.31-1,2.28-2.51,3.7-3.32,0-.32.2-.36.13-.61.28-.09.41-.4.78-.33a18.66,18.66,0,0,1-2.73,3.1c-.63.59-1.15,1.75-2,1.83-.21,0,.07-.33,0-.57C33.14,217.58,33,217.78,33,217.9Z" fill="#09a60e" fill-rule="evenodd"/><path d="M72.58,225.4c-2.51-.22-2.73-3.22-1.15-4.51a2.75,2.75,0,0,1,3.24.13c1.49,1.26.44,4-1,4.4A3.48,3.48,0,0,1,72.58,225.4Zm1.08-1c-.4-.08-.79-.14-1,.14A.83.83,0,0,0,73.66,224.36Zm-2.2-2-.27-.06a.31.31,0,0,0,.17.53A.43.43,0,0,0,71.46,222.39Z" fill="#09a60e" fill-rule="evenodd"/><path d="M115.9,227.46c.11-.32.18.27.44.23a.41.41,0,0,0-.27-.69,3.11,3.11,0,0,1,2.56-1.65,2.45,2.45,0,0,1,2.15,3.16c-.38.65-.58,1.33-1.22,1.73-.79.49-2.65.44-3.26-.35-.4-.51-.23-1.09-.5-1.67C115.92,227.81,116,227.78,115.9,227.46Zm2.65,1.85c-.22-.21-.8-.23-.87.09C118.05,229.49,118.39,229.54,118.55,229.31Z" fill="#09a60e" fill-rule="evenodd"/><path d="M39.88,211.08c-.12-.5.72-.8.67-1.49,1.29-1.23,2.26-3,3.91-3.63.27.5-.31,1-.61,1.22-.07.16.09.17,0,.35C42.57,208.75,41.4,210.55,39.88,211.08Z" fill="#09a60e" fill-rule="evenodd"/><path d="M110.68,216.1a1.48,1.48,0,0,1-1.18-.76c-.63-.75-1.26-2.42-.53-3.45a4.34,4.34,0,0,1,2.29-1.42c2.17-.21,3.12,2,2.82,3.38A2.93,2.93,0,0,1,110.68,216.1Zm1.35-1.63c0,.2-.48-.2-.45.12C111.78,214.68,112.16,214.59,112,214.47Zm-1.57-1.26c-.19.12-.07.38.19.39A.27.27,0,0,0,110.46,213.21Z" fill="#09a60e" fill-rule="evenodd"/><path d="M97.74,204.35c-.07-1.11.22-2.69,1.29-2.71.17.6.29,1.22.47,1.81-.1.37-.39.38-.32.78A1.64,1.64,0,0,1,97.74,204.35Zm.35-1.28c-.06.17,0,.3.14.32C98.29,203.21,98.27,203.09,98.09,203.07Z" fill="#09a60e" fill-rule="evenodd"/><path d="M53.43,192.77a.49.49,0,0,1,.51-.39C53.77,192.52,53.7,192.8,53.43,192.77Z" fill="#09a60e" fill-rule="evenodd"/><path d="M79.23,195c-.52-.62-1.17-1-1.49-1.67-1-2.15.64-4.81,1.51-6.63a2.55,2.55,0,0,1,2.47-.25,3.23,3.23,0,0,0,2.22,1.9,6.26,6.26,0,0,1,1.36,3.21C84.54,194.08,82.85,196.37,79.23,195Zm3-1.84a.87.87,0,0,0-1,.2A.67.67,0,0,0,82.18,193.17Zm-2.35-2.93-.34-.07c-.12.17-.07.28,0,.49l.27.06A.43.43,0,0,0,79.83,190.24Z" fill="#09a60e" fill-rule="evenodd"/><path d="M22.06,168c0-.78.94-.9,1.67-.85C23.41,167.82,22.76,168,22.06,168Z" fill="#09a60e" fill-rule="evenodd"/><path d="M114.49,176.85c.37.15.43.5,1,.51a1.72,1.72,0,0,1-1.83,2.87,2.51,2.51,0,0,1-.83-1.74A3.13,3.13,0,0,1,114.49,176.85Zm-.7,1.91c0,.07,0,.14-.05.21s.25.07.29,0S114,178.73,113.79,178.76Z" fill="#09a60e" fill-rule="evenodd"/><path d="M165,171.94c1.28-.58,2-1.77,3.48-2.3a8.6,8.6,0,0,1,5,.16,13.29,13.29,0,0,1,4,2.35c.39,1,1.23,1.69,1.37,2.85.27,2.22-1.11,4.78-2.12,6.51a22.09,22.09,0,0,1-3,2.2,6.62,6.62,0,0,1-4,1.27,10.63,10.63,0,0,1-4-.66c-1.92-.73-2.85-2.77-2.94-4.83a12.86,12.86,0,0,1,.29-3A9.74,9.74,0,0,1,165,171.94Zm4.12,9.56c-.12-.57-1.36-.57-1.43,0C168,181.91,168.93,181.92,169.11,181.5ZM165,176.56c.09-.41-.44-.79-.73-.59C164.18,176.41,164.58,176.6,165,176.56Z" fill="#09a60e" fill-rule="evenodd"/><path d="M12.28,143.59a1.07,1.07,0,0,1,.31.56,4.35,4.35,0,0,1-2.1,3.1c-.75-.3-1.79-.32-2.18.24-.07.37.2.53.25.83a7.12,7.12,0,0,1-4.69,0A7.71,7.71,0,0,1,2,146.91a11.7,11.7,0,0,1-1.75-1.44c-.67-1,0-2.42,0-3.76,1.07-1.09,2.16-3.19,3.85-3.71a11.65,11.65,0,0,1,1.46-.18,5.68,5.68,0,0,1,3,0,6.61,6.61,0,0,1,1.89.77,8.67,8.67,0,0,1,2.06,2.29c.17.43,0,1,.28,1.34,0,.45-.22.57,0,.93C12.74,143.4,12.48,143.45,12.28,143.59Zm-7.37.25c-.15-.36-1.37-.66-1.36.06C3.94,144.13,4.77,144.3,4.91,143.84Z" fill="#09a60e" fill-rule="evenodd"/><path d="M9.31,147.78c.15-.28.47-.51.77-.26C9.92,147.77,9.62,148,9.31,147.78Z" fill="#09a60e" fill-rule="evenodd"/><path d="M31.13,130.69c-.37-1.27-1.5-1.92-1.17-3.17a5.78,5.78,0,0,1,.83-1.52c.33-.46.7-1.06,1-1.42A6.61,6.61,0,0,1,36,122.93a5.74,5.74,0,0,1,2.46.46c.25.14.65.58,1,.86a3.32,3.32,0,0,1,1.66,2.49c0,.71-.52,1.12-.28,1.65C40.05,133,34.45,133.28,31.13,130.69Zm6.19.27a1,1,0,0,0-1.31.14C36.31,131.46,37.19,131.44,37.32,131Zm-3.94-2.49c-.13-.26-1-.45-1,0S33.32,129,33.38,128.47Z" fill="#09a60e" fill-rule="evenodd"/><path d="M143.39,144.39a6.94,6.94,0,0,1,1.56-5.56,3.65,3.65,0,0,0,1.36-1.05,9,9,0,0,1,3.7-.34,4.72,4.72,0,0,1,2.36,1.58c.13.19.09.53.24.83s.42.4.51.61a4.68,4.68,0,0,1,.21,2.32c-.19.89-.74,1.6-.9,2.5a9.65,9.65,0,0,1-2.1,1.82,4.08,4.08,0,0,1-.59.44,6.06,6.06,0,0,1-2.9-.06C144.89,147.19,144.08,145.58,143.39,144.39Zm5.13,1.25c-.39-.25-1.09-.26-1.24.16C147.49,146.07,148.39,146.08,148.52,145.64ZM145,142.39c-.21-.06-.46-.27-.68-.15C144.22,142.6,144.91,142.87,145,142.39Z" fill="#09a60e" fill-rule="evenodd"/><path d="M158.43,134.29a2.82,2.82,0,0,1,.53,1.82,2.39,2.39,0,0,1-1.82,1.88C153.43,138.1,155.15,132.13,158.43,134.29Zm-1.13,2.6c-.23,0-.5-.06-.65.07C156.9,137,157.18,137.05,157.3,136.89Zm-1.42-.67c.06-.19-.19-.29-.31-.2C155.51,136.29,155.71,136.23,155.88,136.22Z" fill="#09a60e" fill-rule="evenodd"/><path d="M73.08,115.4c-.08-.08-.19-.15-.14-.32.06.11.31.11.37.22S73.11,115.28,73.08,115.4Z" fill="#09a60e" fill-rule="evenodd"/><path d="M71.9,114.29a10,10,0,0,1-4.32-2.36c-.9-.67-1.65-1-1.92-2,.44-.16,1,.27,1.55.4.83,1,2.13,1.3,3.1,2.09C70.93,113,71.26,113.82,71.9,114.29Z" fill="#09a60e" fill-rule="evenodd"/><path d="M162,132.51c-1.25-1.17-2.49-2.22-2.11-4.08a10.41,10.41,0,0,1,.73-2.05A3.6,3.6,0,0,1,165,125c.23.1.33.39.53.54s1,.41,1.3.85c.07.1,0,.31.11.52a5.89,5.89,0,0,1,.53,1.82,4.48,4.48,0,0,1-2.4,3.53A3.89,3.89,0,0,1,162,132.51Zm1.68-1.2c-.31-.19-1-.22-1.11.18A1.2,1.2,0,0,0,163.7,131.31ZM160.78,129c-.23,0-.57-.21-.64,0S160.76,129.37,160.78,129Z" fill="#09a60e" fill-rule="evenodd"/><path d="M72.54,110.66a2.06,2.06,0,0,0,.24-.44c1.67-.16,1.66,1.26,2.68,1.71C74.57,112.68,73,111.4,72.54,110.66Z" fill="#09a60e" fill-rule="evenodd"/><path d="M58.48,108c0-.2.18-.25.34-.28a.37.37,0,0,1,.18.47C58.89,108.29,58.61,108.14,58.48,108Z" fill="#09a60e" fill-rule="evenodd"/><path d="M63.53,108.64c.23-.18,1,.11.81.53C64.06,109.21,63.55,109,63.53,108.64Z" fill="#09a60e" fill-rule="evenodd"/><path d="M44.34,100.8c.11-.27.64-.25.86,0C45.18,101.38,44.48,101,44.34,100.8Z" fill="#09a60e" fill-rule="evenodd"/><path d="M78.35,106.16c-.17,0-.11-.28,0-.35.09.1.29.12.22.33C78.47,106.11,78.38,106.09,78.35,106.16Z" fill="#09a60e" fill-rule="evenodd"/><path d="M31.88,95c0-.2.09-.4.13-.61.81-.37,2.27.49,3.52,1.12a2.22,2.22,0,0,1,1.08.94c-.61.55-1.44-.09-2.07-.3C33.52,95.84,32.46,95.73,31.88,95Z" fill="#09a60e" fill-rule="evenodd"/><path d="M97.48,100.78c-.19-.08-.22-.28-.33-.42.07-.14.21-.16.22-.38C97.69,100.05,97.7,100.56,97.48,100.78Z" fill="#09a60e" fill-rule="evenodd"/><path d="M46.23,86.14c0-.26-.2-.41-.37-.57.45-.14,1.21.49,1.61.77C47.22,86.58,46.82,86.17,46.23,86.14Z" fill="#09a60e" fill-rule="evenodd"/><path d="M43.29,84.3c.56-.64,1.52.23,1.78.67C44.3,85,43.51,85.06,43.29,84.3Z" fill="#09a60e" fill-rule="evenodd"/><path d="M34.12,79.76c.25,0,.27.14.38.22C34.42,80.2,33.93,80.05,34.12,79.76Z" fill="#09a60e" fill-rule="evenodd"/><path d="M34.16,78.27c.35-.41.9.18.87.55C34.67,78.89,34.4,78.46,34.16,78.27Z" fill="#09a60e" fill-rule="evenodd"/><path d="M152.22,98c.05-.27-.25,0-.46-.17-.14-1.43,1.47-2.1,2.35-3s1.36-1.67,2.18-1.87c.15-.5.54-1.38,1.36-1.34.21.11.15.4.38.51a1.72,1.72,0,0,1-1.29,1.07C155.74,95.41,154.38,97.19,152.22,98Z" fill="#09a60e" fill-rule="evenodd"/><path d="M8.53,58.81c1.15-1.86,2.68,0,4.1.74a21.72,21.72,0,0,0,2.76,1,21.43,21.43,0,0,1,4.32,2.07c.75.58,2.18,2,1.72,3.22s-3.09,1.08-4.12,1c-2.44-.29-3.43-1.79-4.5-3.17-.52-.68-1.18-1.15-1.67-1.78C9.54,61.35,8.42,60.28,8.53,58.81Zm7.16,5.31-.06.27a.68.68,0,0,0,.5.32C16.44,64.42,16.07,64,15.69,64.12Z" fill="#09a60e" fill-rule="evenodd"/><path d="M38.44,220c.24-.4.44-1.11,1-.63,0,0-.22.44-.44.75Z" fill="#09a60e" fill-rule="evenodd"/><path d="M69.29,218.94c.28.33-.15,1.23-.47,1.17S68.61,218.82,69.29,218.94Z" fill="#09a60e" fill-rule="evenodd"/><path d="M75.58,218.09c-.06.09-.08,0,0,0s-.4,0-.55-.05-.11-.11-.23-.26a4.27,4.27,0,0,1-2.55-1.69c-.11-.21-.09-.59-.39-.51-.33-1.28-1.1-2.28-1.26-3.68.26-1.49.59-3.26,2-4.41.16-.14.44-.2.65-.36A10.53,10.53,0,0,1,76,205.39c.46-.12,1.11,0,1.65-.07,1.3-.16,4.08.46,5.09,1.75.29.37.6,1,.89,1.47a4.67,4.67,0,0,1,1,2.91c-.14,1.38-.86,2.42-1.26,3.85a23.65,23.65,0,0,1-2.3,2.13c-.79.13-1,.69-1.71,1C78,218.23,76.73,218.94,75.58,218.09Z" fill="#09a60e" fill-rule="evenodd"/><path d="M94.47,196.46c0-.45.49-1.31.21-1.94l.2,0a7.7,7.7,0,0,0,.33-2.48,22.15,22.15,0,0,1-4-.16c-.17,0,0-.29-.21-.33s-.68-.09-.82.18c-.49-.34-.48-.87-.92-1.34.31-1.47-.61-2.79.3-4-.08-.79-.85-1.12-1.44-1.58-.18.25-.31.16-.61.22-.8.14-1.41.79-2.28.36-.11-.5-1.49-.56-1.68-.79a3.6,3.6,0,0,1-.39-.16c-.27-.21-.32-.45-.59-.55a1.6,1.6,0,0,0-1.06,0c-.27,0,0-.06,0-.22A9,9,0,0,0,78.29,182c.06-.22-.23-.2-.2-.4-1.86-.21-3.1-2.89-4.87-1.76,0,.06-.41.08-.36,0-1.49,1.07-2.83,2.75-4.78,3.37-1.12-.11-1.39-.77-1.92-1.27,0-.24,0-.5-.24-.54.79-2.39,3.34-2.62,5.35-3.39,0-.37.39-.5.46-.83s-.12-.14-.14-.31.29-.39,0-.56-.42-.22-.53-.54a1.15,1.15,0,0,1-.75-.45,4.33,4.33,0,0,0-4.6,1.56,3.74,3.74,0,0,0-1.9,2.22,20.15,20.15,0,0,1-3.29,3.06c-.86.11-1.45.8-2.17,1.16a11.48,11.48,0,0,0-2,.85c-.81.62-1.24,1.51-2.16,2.1-.22,1.07-1.48,1.72-1.57,3-.06.19-.26.15-.35.28,0,.36-.32.52-.21.67-1,.35-1.75,1.93-2.77,2.6a3.51,3.51,0,0,1-2.19,1.94c-.59-.22-1.34,0-1.89-.48-.23-.22-.16-.75-.54-.76.23-.17,0-.61.1-.83a9.34,9.34,0,0,1,1.07-2c.4-.52,1.1-.87,1.59-1.43a28.43,28.43,0,0,1,3.2-3.29c.26-.22.83-.36.78-.68.46-.28,1.07-.73,1.09-1.4.28.09.09-.21.14-.33s.05.09.12.1a1.38,1.38,0,0,0,0-.64c.08-.19.08.13.19.11.08-.62.81-1.65,1.13-2.59a2.3,2.3,0,0,0,.74-2.47c-.27,0-.32.35-.63.29a1.63,1.63,0,0,0-1.14-2.59,9,9,0,0,0-2.45.46c-.18-.29-.85-.31-1-.72-.26-.8.18-1.92.32-2.77.08-.19.08.12.19.11a9.21,9.21,0,0,1,4.32-5.53c.81-3,2-8.78-1.55-9.93a8.47,8.47,0,0,0-5.72.83,21,21,0,0,0-2.42.68c-2.64,1.28-4.75,3.38-7.45,4.57a1.66,1.66,0,0,0-1.41.26c-.08,0-.12,0-.15,0s-.17-.09-.26-.13c-1.38-.29-2.31.62-3.35,1.05a24,24,0,0,1-2.87.8,3.6,3.6,0,0,1-1.72.41c-.13,0-.1.22-.2.24-.08-.19-.07-.09-.32-.14,0-.91,1-1.07,1.59-1.43a41.45,41.45,0,0,1,5.49-3.07c.86-1.05,1.89-1.84,2.76-2.89,3.17-1.36,6.5-2.47,9.59-4a26.15,26.15,0,0,0,1.92-2.29c.69-1.33-.88-2-1.83-2.73,0-.49-.44-.61-.68-.79.65-.67,1.22-1,1.88-.8s2,1,2.65.22a3,3,0,0,0,.1-2.75,5.09,5.09,0,0,0-2.42-1.95c-.34-.15-.27-.55-.73-.58-.38-.85-2-1.27-3.22-1.84A5.6,5.6,0,0,0,41.9,141c-.67-.09-1.53-.34-2.32-.43a2.17,2.17,0,0,1-.3.08c-.45-.11-.88-.51-1.28-.63a2.49,2.49,0,0,1-1.26-.42c-1.69,0-4.2-.84-5.83-1-.09-.09,0-.1,0-.29-.83-.1-1.23.45-1.9.58a8.49,8.49,0,0,1-1.72,2.68,9.88,9.88,0,0,1-5.46,1.59,9,9,0,0,1-2.63-.64c-1.08-.42-1.62-1.69-2-2.63a2.8,2.8,0,0,1-.38-1.5,11.82,11.82,0,0,1,.74-2.12,8,8,0,0,1,.85-2.3c.15-.21.49-.48.73-.76a7,7,0,0,1,5.5-2.43c2,.19,2.31,1,3.21,2.25a6,6,0,0,1,1.31,2.49c2.23.57,4.35,1.51,6.56,1.84a4.58,4.58,0,0,1,2.47.75c1.22.06,2,.47,3.22.55.09.05.1.12.22.27,1.8.31,3.62.46,4.7,1.3,0-.14.13-.07.31-.15,1.1.47,2.32.42,2.73-.47.18-.06.44,0,.48-.25-.22-.42-.22-1.15-.44-1.24.36-.05,0-.43.46-.47.1-.26-.25-.23-.19-.46.2,0,.4,0,.42-.27-.21-.49-.85-.7-1.27-1-.07-.35-.15-.68-.53-.83,0-.22.27-.13.14-.32s-.15.14-.37.06c-.15-1-.3-1.5-.5-2.6a.91.91,0,0,0,.51-.74c1-.36,1.78-.63,2.79-1A12.14,12.14,0,0,0,52,127.66c.43-2.41-2.49-2.56-3.84-3.6.16.13-.2-.22-.23-.26-.23-.33-.08-.72-.42-1,.28-.59.3-1.38.93-1.64,1-.44,3,.65,3.31,1.43.65.23,1.28.93,2.16,1.17,1.21.34,3-.31,3.27-1,.21-.45,0-.92,0-1.5.62-.18.06-1.14-.5-1,0-1.16-1-1.63-1.12-2.73-.1-.16-.24-.08-.4-.09.23-.29-.36-.49-.15-1-.08,0-.12,0-.12-.09a3.67,3.67,0,0,0-1.36-.94c-1.2-.46-2-1.51-3-2.13-.34-1.12-2.16-1-3.64-1.57-.15,0-.22-.21-.37-.29-.72-.37-1.56-.39-2.12-.67a4.66,4.66,0,0,1-1.57-1.62c.24,0,.51.08.6-.15s-.46-.37-.82-.46a2.47,2.47,0,0,1,2.23-2.79c4.6.37,6.41,2.88,9,4.72,0,.16.21.18.13.38.93.42,1.2,1.26,2.13,1.67,1.08,1.72,2.86,3,4.28,4.48.88.51,2.39.36,3,1.13,1.13.19,1.79,1.34,3,1.51,1.49.21,3.17.06,4.8.12,1.45,0,3.78-.58,3.84-2.3,0-.14-.13-.21-.15-.32s.21-.48-.15-.6c.29-.31,1-.3,1.36-.7a3,3,0,0,0,.17-2.09c.2.16.07.53.44.59.36-.22.18-1-.35-1-.32,0,.21.44-.15.32,0-.45.1-1-.39-1.15,0-.12.24,0,.25-.15s-.52,0-.72,0c-.1-.3.76-.36.82-.18a19.19,19.19,0,0,0,1.32-1.49c-.09-1.63,1.42-3.15,1.79-4.65.54-.18.8-.81,1.13-1.32-.08-1-1.22-.62-2-.49-1.73.3-4.28.27-5.73-1.1a6,6,0,0,1-.77-1.38c-.42-.68-1-.93-1.73-1.51-.15,0-.26.15-.36,0,1.67-.07.4-2.51-.46-2.8a17.11,17.11,0,0,1-.77-2.66A5.28,5.28,0,0,0,68.2,93c-.52-1-1.3-1.51-1.44-2.87s-.35-2.66-.52-3.81c0-.2,0-.44,0-.64-.11-.71-.53-1.42-.6-2.12s.29-1.67,0-2.49a34.08,34.08,0,0,0-4.84-5.24c.54-1.4-2.36-1.89-1.69-3-.19-.62-.9-.9-1.18-1.47-.86-.19-.77-1.37-1.52-1.82-.83.2-1.13-.38-1.43-1a3.49,3.49,0,0,1-2.59-2.48,7.17,7.17,0,0,0,.37-1c2-.74,2.82.82,4,1.79a16,16,0,0,1,2.77,2.3c.19.27.27.67.45.88,1.23,1.5,3.11,1.86,4.18,3.32,1.84,1.82,3.91,3.48,5,5.77a4.32,4.32,0,0,1,1.62,3c.37,1.5,1.78,2.41,2.51,3.82a2.59,2.59,0,0,1,1.15,1.24c.19,0,.26.19.45.24a7.68,7.68,0,0,0,2.36,2.85,25.1,25.1,0,0,1,3.87,1.84c.84.39,1.83.59,2.63,1,.49.25,1.42.9,2,.64.86.84,1.79-.15,2.64-.06.59,0,1.13.56,1.76.73a22,22,0,0,1,2.42.31c.29.16.31.51.73.59,1,1.35-.77,3.7.35,5.26-.65,1.36.19,2.64,1.78,2.94a1.89,1.89,0,0,0,1.91,1.34c.34,0,0,.42.25.48s.3-.09.4-.2c.09.35.55.38.77.38a3,3,0,0,0,1.18.47c-.16.23.3.08.14.31,1.24.18,2,1.15,3,1.66.13.43.55.66.94.91a3.84,3.84,0,0,0,1.19,1.75c-.31.46.4.83,0,1.14.17.08.19.27.43.31a4,4,0,0,0,.51,2.24,1,1,0,0,0,.06,1c1.11.3,1.59,1.51,2.69,2a2.27,2.27,0,0,0,2.61-1.21,3.54,3.54,0,0,0,.42-1.26c0-.35-.19-.66-.21-1,0-1.12.84-2,.88-2.72a10,10,0,0,0,1.16-1.1,6.85,6.85,0,0,1,.3-1.71c.27-.23.62-.36.8-.75,0-.25-.27-.29-.15-.6.48-.18.53.47.76.73a3,3,0,0,1,.92,1.34c-.07.61,0,1-.11,1.47a2.89,2.89,0,0,0-1,.57c-.28,1.49.59,3.18,1.91,1.69.3-.35.59-.8,1-1.21s.83-.68,1.06-1,.2-.66.41-.9.25-.08.32-.15c.77-.92,1.77-2.7,3-1.55,1.79.25,1,2.06.37,3.21a18.09,18.09,0,0,1-1.21,2.3c-.09.12-.34.17-.49.32s-.28.49-.42.62-.35,0-.45.11a8.51,8.51,0,0,0-.85,1c0,.07.17.14,0,.15.78.34,2.56.27,3.68.72a.54.54,0,0,1,0,.51c2,.7,5.05,1.21,6.85.48.08-.31.57-.45.45-.75,1.51-.78,2.29-2.15,3.82-2.87a5.51,5.51,0,0,1,1.93-1.71,4.86,4.86,0,0,1,1.28-1.64c0-.27.15-.31.18-.53.19.1.22.13.36,0s-.16-.09-.26-.12c-.22-1.16.69-2.5,1.5-3.3.46-.46.93-1.14,1.47-.89.95.43-.32,1.62-.13,2.24a4.89,4.89,0,0,1-2.4,2.54c-.67,2-2.36,2.43-3.18,4.21-1,.61-1.36,1.66-2.07,2.68-.18.88-.6,1.09-.81,1.74a1.91,1.91,0,0,0,.76,1.09c1.85.19,3.44.14,4.6,1.42a11.57,11.57,0,0,1,.9,1.4c.3.55.3,1.13.56,1.69a5.72,5.72,0,0,0,0,2.42c.09.15.29,0,.23.27a16.07,16.07,0,0,0,3.57.91c1,.17,2,.63,2.61.71.89.11,1.85-.38,2.86-.38a16.59,16.59,0,0,0,2.12,0,5.19,5.19,0,0,1,2.37-.12,1.29,1.29,0,0,1-.15,1.67c-.69.57-1.76.18-2.49,0-1.13-.24-2.44.44-3.6.22-.12,0-.12-.12-.25-.13-.6,0-1.41.28-2.19.24s-1.72-.38-2.47-.4a4.08,4.08,0,0,0-2.8.82c-.12,1.06-1.1,1.86-1.47,2.52-.89.23-1.11,1.49-1.95,1.78-.23.62-.77.74-.9,1.51-.22.32-.53.51-.64,1-.06.09-.26,0-.3.08,0,.42.34,1-.25,1.15.18.27,0,.39.06.73s.49.26.27.69c.83.87,2.38,1.28,2.82,2.39a1.89,1.89,0,0,1-2.67,1.84c-.55.28-1.64.51-1.49,1.31-1.36.38-2,1.55-3.26,1.92.06.27.14-.13.29,0-.41.27,0,.85-.36,1.35.19.84.66,2-.08,2.68-.55.48-1.63.18-2,.92a3.44,3.44,0,0,0,1.3,2.2c-.1.06-.13.22-.16.39a1.34,1.34,0,0,0,.57.34c0,.23-.21.1-.26.23a1.49,1.49,0,0,0,1.24.19c.05.19.12.54.36.29a1.3,1.3,0,0,0,.16.89c.33.09.55.17.67.5s-.17.09-.3.08c0,.15.67.59.75.16.15.49.9.66,1.15,1.24-.25.23-.5.58-.63.29-.55.21-.09.77-.07,1-.19-.15-.15-.17-.46-.17.07-.13.24-.17.14-.32s-.19.37-.18.53c-.12-.19-.23.1-.39.13-.18.69-1.3,2.08-.67,2.76-.33.23.13.68-.35,1,.13,0,.09.33.3.57-.09.15-.37.25-.59.44.29.16.09.28.33.42-.29-.21-.18.74-.57.66a.75.75,0,0,1,.13.39c-.3-.15-.46.28-.6.5a.19.19,0,0,0,.16-.1c.13.23-.44.16-.56.3,0,.26-.06.25,0,.49-.14,0-.17-.08-.25-.13-.09.13,0,.35-.11.48a2,2,0,0,1-.24.16c-.12.35,0,.79-.18,1.17a13.73,13.73,0,0,1-1.28,1.64c-1.54.32-2.5,1.45-4.12,1.31.18.19-.22.09,0,.2-.24.08-.56,0-.8.11a2,2,0,0,1-1.59,1.08c-.19.09.17.22.16.25-.2.27-.71.21-1.07.05-.12.12,0,.29-.22,0a12.7,12.7,0,0,1-1.1.83c-.18-.14-.25,0-.4-.15-1.06.18-2.06.47-3.18.59a2.14,2.14,0,0,0-2.1.53c-.37-.14-.44.17-.74.13,0,.13,0,.23-.06.27s-.21-.32-.6-.2a.43.43,0,0,1,0-.35c-1.86-.52-2.86,1.49-3.69,2.61.16.41,0,.63.12,1.09-.9.41-.81,2.07-1.6,2.78-1.07,2.16.95,2.55,2.23,3.18A1.28,1.28,0,0,0,109,187a7.9,7.9,0,0,0,1.92,2c0-.07,0-.14-.11-.17.36.24.41,1.17,1.12,1.38.22.53.1,1.15.58,1.62-.27.22-.09.82.11,1.09a2.85,2.85,0,0,0,.3,2.26c-.09.23-.23.62-.1.76-1.3.88-2.17,2.43-3.48,3.3a2.56,2.56,0,0,1-.43,1.33c-.35-.05-.61-.44-1-.56-3-1.09-3.55,2.8-5.67,3.25-.28-.2-.68-.32-.92-.7-.06-.1,0-.27-.06-.37-.3-.36-1.1-.88-1.56-1.33-.19-.19-.29-.56-.71-.65s-.62.21-1,.2c-.45.47-.63,1.38-1.15,1.74,0-.21.13-.33.29-.36-.5-.5-.24-1.33-.22-2-.49-.49-.9-1.21-1.77-1s-2,2-2.4,3.24c-.12.33,0,.72-.15,1-.06.17-.24.28-.31.43a8,8,0,0,1-1.14,2.31c-.55-.59-.27-1.51-.28-2.33.14,0,.3,0,.39-.14a1.71,1.71,0,0,0,0-.91,18.46,18.46,0,0,0,2.22-4,2.1,2.1,0,0,1,.73-2.4C94.33,196.07,94.2,196.39,94.47,196.46Zm-23.92-96c0-.09.13-.11.13-.26s-.14-.11-.26-.12C70.37,100.31,70.33,100.48,70.55,100.5ZM65.7,80.91a.61.61,0,0,0-.51-1A.87.87,0,0,0,65.7,80.91Zm32.74,118.9c-.3,0-.73-.16-.82.18C97.92,200,98.3,200.08,98.44,199.81Zm-2.57-1.62c-.23-.15-.84-.18-1,.15A1.51,1.51,0,0,0,95.87,198.19ZM109,199.54c-.37,0-.82-.19-1,.15A1.24,1.24,0,0,0,109,199.54Zm-14.42-8.88a2.79,2.79,0,0,0-2.84.67A5.27,5.27,0,0,0,94.59,190.66ZM53.21,175.39c-.3,0-.69,0-.83.24C52.68,175.59,53,175.63,53.21,175.39ZM50,173.64c-.19-.13-.36.22-.21.31C49.94,173.87,50.18,173.84,50,173.64Zm7.89-11.51a1.56,1.56,0,0,0-.74.12,1.53,1.53,0,0,0,0,1.2C57.93,163.82,58,162.75,57.93,162.13Zm-6.83-5.88c-1-.25-1.78.5-2.75.54.09.28-.4.33-.08.41A7.64,7.64,0,0,0,51.1,156.25Zm-1.69-2.71a3.77,3.77,0,0,0,1.09-2.39c-.44-.18-.67-.77-1.2-.69,0,.57.56.76.56,1.33C49.49,152.11,49,153.06,49.41,153.54Zm3.4-5.87c-.24-.1-.31.05-.55,0a1.83,1.83,0,0,0-.22.66,1.37,1.37,0,0,0,.55.41A1,1,0,0,0,52.81,147.67ZM25,140.59a1.09,1.09,0,0,0-1.42.33A1,1,0,0,0,25,140.59Zm80.29,16c-.32,0-.75-.13-.89.16C104.76,156.8,105.14,156.88,105.3,156.61ZM21.51,138.05c-.31-.2-1-.3-1,.29C20.85,138.53,21.49,138.63,21.51,138.05Zm83.9,18c-.3,0-.66-.13-.8.1A2,2,0,0,0,105.41,156.07Zm-1.41-.38.28.06A.15.15,0,1,0,104,155.69Zm-.94-2.19-.06.27.27.06Q103.42,153.48,103.06,153.5Zm23.66-25c-.31.08-.83-.14-1,.22C126.09,128.66,126.62,128.9,126.72,128.49ZM80.46,104.92a.36.36,0,0,0,.14.67C80.81,105.28,80.68,105.09,80.46,104.92Zm-.63-2c-1.23-.36-2.68-.29-3.32.56A4.86,4.86,0,0,0,79.83,102.93ZM68.41,91.65a4.63,4.63,0,0,1,1.11,3.09c.19.21.65.9,1,.49.09-.54-.38-.9-.55-1.4-.43-1.33-.66-2.84-2.29-3.2C67.37,91.29,68.12,91.38,68.41,91.65ZM139,108.78c-.06.12-.28,0-.26.22C139,109.14,139.18,108.89,139,108.78Z" fill="#09a60e" fill-rule="evenodd"/><path d="M96.05,203.27c.35,0,.11-.82.67-.78,0,.39.18,1.27-.36,1.34-.3-.08-.2-.41-.37-.57C96,203.18,96.06,203.23,96.05,203.27Z" fill="#09a60e" fill-rule="evenodd"/><path d="M57.08,187.73c-.47,1.1-1.79,1.64-2.66,2.41-.19,0,.12-.31-.07-.3.29-.15.66-.21.82-.53.06-.12-.09-.36-.05-.44C55.49,188.18,56.32,188.12,57.08,187.73Z" fill="#09a60e" fill-rule="evenodd"/><path d="M16.28,170.74c-1,.55-2.17.81-3.22,1.43s-2,1.65-3.34,2a13.14,13.14,0,0,0-1.31.14c-.76.28-1.54,1.63-2.59.79.19-1.25,1.68-.75,2.4-1.25.36-.26.72-.58,1.11-.83,1.76-1.13,4.15-1,5.87-2.21C15.79,170.92,15.7,170.57,16.28,170.74Zm-6.43,2.8c.05-.26-.06-.19-.24-.2,0,.07,0,.14,0,.21S9.73,173.5,9.85,173.54Z" fill="#09a60e" fill-rule="evenodd"/><path d="M59.42,183.48c-.19-.22.25-.66.51-.74C59.87,183.21,59.4,183.14,59.42,183.48Z" fill="#09a60e" fill-rule="evenodd"/><path d="M74.07,115.75c-.08.11-.13,0-.2,0s-.07.07-.1.12-.13-.27-.28-.35C73.55,115.43,73.9,115.68,74.07,115.75Z" fill="#09a60e" fill-rule="evenodd"/><path d="M72.48,114.91c-.22-.09-.32-.33-.5-.32s.19-.28,0-.29C72.05,114.3,72.73,114.68,72.48,114.91Z" fill="#09a60e" fill-rule="evenodd"/><path d="M62,107.38c.06-.1.07,0,0,.08-.95-.53-2.21-1-3.19-1.68.14-.2.3.21.37-.07.05-.1,0-.13,0-.21-.24-.13-.16.23-.38.13.37-.44-.43-.47-.3-.92A10.06,10.06,0,0,1,62,107.38Z" fill="#09a60e" fill-rule="evenodd"/><path d="M61.05,94.82A20,20,0,0,1,53.43,90,29.28,29.28,0,0,1,61.05,94.82Z" fill="#09a60e" fill-rule="evenodd"/><path d="M52.87,89.64c-.79.08-1.67-.69-2.25-1.13-1.5-.49-2-1.54-3.26-2C49.05,86.84,51.43,88.43,52.87,89.64Z" fill="#09a60e" fill-rule="evenodd"/><path d="M39.56,81.86c-.6.14-.68-.55-1.16-.54,0-.07.14,0,.16-.1a1,1,0,0,1-.74-.52A6.85,6.85,0,0,1,39.56,81.86Z" fill="#09a60e" fill-rule="evenodd"/><path d="M72.67,76c1.53.72,1.68,2.34,2.42,3.58-.5.18-.7-.67-1.17-1.18-.62-.66-1.54-1.07-1.6-2.12.13,0,.09-.22.19-.24S72.64,76,72.67,76Z" fill="#09a60e" fill-rule="evenodd"/><path d="M88.63,212.32c-.31-.73.38-2.11,1-2.69C89.86,210.56,89.6,212.19,88.63,212.32Z" fill="#09a60e" fill-rule="evenodd"/><path d="M133.19,98.92a4.51,4.51,0,0,1,.29-2,2.61,2.61,0,0,1,2.08-1,2.24,2.24,0,0,1,1.6,1.77,3.44,3.44,0,0,1-1.3,2.42A2.42,2.42,0,0,1,133.19,98.92Zm1.4-.55c-.11-.14-.09,0-.27-.06A.15.15,0,1,0,134.59,98.37Z" fill="#09a60e" fill-rule="evenodd"/><path d="M54.08,79.8l0-.19c.74-.29,1.17-.81,1.91-1.1C55.69,79.18,54.67,79.56,54.08,79.8Z" fill="#d4000d" fill-rule="evenodd"/><path d="M57.33,78.58c0-.11,0-.21,0-.32,1.33-.43,1.67-1.91,3.13-2,.11.32-.2,0-.35.24s.29,0,.23.22c-.76.73-2.06,1.06-2.71,1.86C57.47,78.67,57.5,78.55,57.33,78.58Z" fill="#d4000d" fill-rule="evenodd"/><path d="M68.53,55.74a.76.76,0,0,1,.54-1.23C70.33,54.52,69.33,57.05,68.53,55.74Z" fill="#d4000d" fill-rule="evenodd"/><path d="M77.82,106.36c.74-.77,2.38-.79,2.85,0s-.28,2-1.54,2C78.32,108.34,77.19,107.49,77.82,106.36Zm1.36,0c-.17.06-.52,0-.56.14C78.87,106.45,79.09,106.6,79.18,106.36Zm.37.4c0,.12,0,.15,0,.26C79.82,107.07,79.83,106.68,79.55,106.76Z" fill="#d4000d" fill-rule="evenodd"/><path d="M74.42,65.18c0-.16.19-.16.36-.18C74.87,65.22,74.54,65.12,74.42,65.18Z" fill="#d4000d" fill-rule="evenodd"/><path d="M82,79.6a3.52,3.52,0,0,1,0-1.93,5.78,5.78,0,0,0,.69-.61c2-.53,3,.79,4.16,1.61.74,1.56,0,3.21-1.47,3.37S82.71,80.74,82,79.6Zm1.86-1c-.18.09-.66,0-.61.22C83.4,78.76,83.88,78.89,83.83,78.63Zm.77.86c-.09,0-.14-.07-.26,0a1.37,1.37,0,0,0,0,.19C84.51,79.65,84.6,79.61,84.6,79.49Z" fill="#d4000d" fill-rule="evenodd"/><path d="M80.53,33.51c.09.07.28,0,.45,0,0-.18-.28-.08-.46-.06.35-.7,1,.13.75.79a.17.17,0,0,0-.25,0,.17.17,0,0,0,.15.17c-.16.14-.19.38-.45.45C80.61,34.45,80.25,33.81,80.53,33.51Z" fill="#d4000d" fill-rule="evenodd"/><path d="M97.57,74c0-.11.14-.16.3-.17C97.94,74.06,97.68,74.1,97.57,74Z" fill="#d4000d" fill-rule="evenodd"/><path d="M99.53,4.17c0-.06.06-.12,0-.12a.62.62,0,0,1,.41-.32c.14.08-.07.28.17.3-.14.12-.22.13-.08.33C99.78,4.39,99.7,4.22,99.53,4.17Z" fill="#d4000d" fill-rule="evenodd"/><path d="M106.65,33.55c-.09-.19.07-.21.08-.33C106.88,33.25,106.84,33.6,106.65,33.55Z" fill="#d4000d" fill-rule="evenodd"/><path d="M136,38.37c-.25-.11.16-.18.3-.17.13-1.51,2.19-1.32,3.21-1.93C139,37.33,137.16,37.82,136,38.37Z" fill="#d4000d" fill-rule="evenodd"/><path d="M151.31,114.58c-.08,0-.05-.23-.22-.16,0-.14.27-.07.37-.12-.06.1-.17.15,0,.26s.23,0,.23-.16c.18.31.84,0,.9.46-.74,0-1.83.13-1.87-.52A1.73,1.73,0,0,1,151.31,114.58Z" fill="#d4000d" fill-rule="evenodd"/><path d="M140.94,35.81c-.23-.1.07-.28.07-.39.07,0,.24,0,.22.16C141.08,35.46,141,35.69,140.94,35.81Z" fill="#d4000d" fill-rule="evenodd"/><path d="M159,114.16a3,3,0,0,1,2.59.09,8.69,8.69,0,0,1,3.19.71,5.49,5.49,0,0,1-4.53-.14c-.21,0,0,.21-.23.16C159.54,114.73,158.93,114.81,159,114.16Z" fill="#d4000d" fill-rule="evenodd"/><path d="M162.52,108a.84.84,0,0,1,1.1.49.82.82,0,0,1-.72.43C162.59,108.74,162.48,108.46,162.52,108Z" fill="#d4000d" fill-rule="evenodd"/><path d="M157.37,44.55a2.58,2.58,0,0,1,1-.91c-.12.39-.55.53-.64.93A.45.45,0,0,0,157.37,44.55Z" fill="#d4000d" fill-rule="evenodd"/><path d="M166.88,107.84c0-.09.15-.08.24-.1,0,.16.14.12.11.31C167,108.13,167.06,107.82,166.88,107.84Z" fill="#d4000d" fill-rule="evenodd"/><path d="M169.22,99.13c0-.1,0-.21-.05-.32a.75.75,0,0,0,.66-.35,2.61,2.61,0,0,0,1.47-.07,3,3,0,0,0,1.59.29,2.75,2.75,0,0,0,.68.68c-.08.21-.34.28-.38.51C172,99.54,170.46,99.41,169.22,99.13Z" fill="#d4000d" fill-rule="evenodd"/><path d="M161.9,39.54c.18.5-.19.86-.77.94C160.92,40.08,161.14,39,161.9,39.54Z" fill="#d4000d" fill-rule="evenodd"/><path d="M169.83,81.31a1.75,1.75,0,0,1,1.63.1C170.85,81.76,170.39,81.28,169.83,81.31Z" fill="#d4000d" fill-rule="evenodd"/><path d="M168.39,70.94c0-.11.06-.14,0-.26.14.08.42,0,.58,0C169,71,168.66,71,168.39,70.94Z" fill="#d4000d" fill-rule="evenodd"/><path d="M174.4,106.73c.12-.23.27.12.4.13.92,0,2.36.24,2.34,1.49-.85.26-1.1-.35-1.52-.7S174.55,107.13,174.4,106.73Z" fill="#d4000d" fill-rule="evenodd"/><path d="M166,46.32a1.67,1.67,0,0,1,1-.59A1.87,1.87,0,0,1,166,46.32Z" fill="#d4000d" fill-rule="evenodd"/><path d="M170,70.85c0-.16.21-.22.27-.36a10.23,10.23,0,0,1,2.09-.29c.15.23,1,.11,1.45.25-.88.84-2.17,0-3.16.44,0-.12-.1-.13-.1-.25C170.24,70.66,170.27,71,170,70.85Z" fill="#d4000d" fill-rule="evenodd"/><path d="M171.67,81.51c.17-.32.49,0,.82-.11C172.42,81.76,172,81.48,171.67,81.51Z" fill="#d4000d" fill-rule="evenodd"/><path d="M167,45.66c0-.06,0-.12,0-.19.87-.48,1.09-1.77,2.4-1.75C169.1,44.81,167.63,45,167,45.66Z" fill="#d4000d" fill-rule="evenodd"/><path d="M173.58,90.66s0-.07.06-.07-.07-.2,0-.32c.21.07.47.09.51.38C174,90.82,173.78,90.63,173.58,90.66Z" fill="#d4000d" fill-rule="evenodd"/><path d="M172.22,80.85c.21-.26.56.08.72.1.36,0,.89-.12,1.41-.07.82.08,2.49,1.18.9,1.36a3.84,3.84,0,0,1-2.47-1.08c-.27.11-.33-.06-.53,0S172.41,80.87,172.22,80.85Zm1.76.6c0-.21-.49-.34-.46-.07C173.68,81.4,173.86,81.59,174,81.45Z" fill="#d4000d" fill-rule="evenodd"/><path d="M170.33,22.31c.68-.46,1.69-1.76,2.62-1.14-.1.71-.78,1-1.73,1-.3,0,.05-.1,0-.25A1,1,0,0,1,170.33,22.31Z" fill="#d4000d" fill-rule="evenodd"/><path d="M182.45,101.61a.11.11,0,0,1,.05-.14c1.26.47,4,0,4.85,1.52a6,6,0,0,0-2.07-.1A11,11,0,0,0,182.45,101.61Z" fill="#d4000d" fill-rule="evenodd"/><path d="M188,103.09c.23-.33.64.08,1,.06C188.72,103.36,188.34,103.07,188,103.09Z" fill="#d4000d" fill-rule="evenodd"/><path d="M189.28,103.43c0-.08.1-.11.1-.2.73.21,2-.22,2.25.84C190.74,104.3,190.18,103.46,189.28,103.43Z" fill="#d4000d" fill-rule="evenodd"/><path d="M205.51,137.61c-.49-.69.87-1.05.87-.25A.49.49,0,0,1,205.51,137.61Z" fill="#d4000d" fill-rule="evenodd"/><path d="M200.32,70.56c0,.13,0,.26.05.38a8.84,8.84,0,0,1-3.77.27,2.63,2.63,0,0,1,2.38-.53A2.47,2.47,0,0,1,200.32,70.56Z" fill="#d4000d" fill-rule="evenodd"/><path d="M44.92,86.3A4.23,4.23,0,0,1,47,84.78C46.74,85.57,45.57,86,44.92,86.3Z" fill="#d4000d" fill-rule="evenodd"/><path d="M77.53,38.89c.11.24.7.14.91,0,0-.16-.13-.18-.23-.22s.37,0,.57-.08c.63-.83,1.59-1.41,2.06-2.35a6.15,6.15,0,0,1-.09-1.09c.36,0,.38.41.82.28,0,.19-.37.1-.42.25.1.42.55.37,1,.31,0-.3-.15-.5-.45-.45a2.68,2.68,0,0,0,2.15-1.72c0-1-.13-1.68-.08-2.44-.61-1.27-.35-2.43-.72-4.22.08-.14.3-.19.55-.21,0-.23-.28,0-.34-.14s.15-.15.23-.23c.89.46.62,2.74,0,3.09a1.14,1.14,0,0,0,.39.53c-.3.5.39.56.15,1.07,1.15.77,2,2.29,3.87,1.85a.93.93,0,0,0,1.26-.24c0-.17-.15-.1-.22-.16.25-.37.31-1,.82-1.08,1-.09.39,1.91,1.54,1.78,0-.18.06-.23.41-.25-.15-.45.41-1.1.61-1.63.83-.08.81-1,1.07-1.57.15,0,.16.1.33,0s-.25-.07-.29-.22c.43-.63.16-1.47.25-2.35.15-1.3.88-2.44,1.12-3.58.1-.13.12,0,.32,0,0-.21,0-.27.12-.47.38,0,.3.52.29.67A8.06,8.06,0,0,1,95,26a6.54,6.54,0,0,0-.58,2.33c-.12,0-.07-.2-.21-.16,0,.25.17.43.22.68-.62.51.18,1.82-.44,2.38.48.8,1.94.74,2.88.31,0-.19.12-.34-.12-.37.25-.25.58-.43.74-.75.64.05.88.63,1.78.34.65-1.39.81-3.43,1.28-4.76.21,0,.2-.26.4-.31-.13-.26.15-.64.12-1,.08-.09.1,0,.19,0-.11-.14,0-.34.19-.55s.26.11.46.07c.23.48-.13.93-.13,1.37s.19.8.16,1.2c-.07,1.17-.92,1.8-1.41,2.84.14.47-.19.57-.12,1l-.32,0c.94,1.92,2.19,4,4.1,4.91.17-.17.31-.26.5-.13.17-.17.33-.13.46-.39.18-.05,0,.35.17.3-.25.14-.24.49-.49.65a3.19,3.19,0,0,0,2.33,1.87c.54-.12,1.32.22,1.75.08.89.69,2.59.26,3.62.07.1,0,.11.21.23.23a.6.6,0,0,1,1,.38c.49,0,.76.25,1.2.29a2.16,2.16,0,0,1,1.45-.27c-.06-.33.71-.31.81-.18a6.84,6.84,0,0,1,1.37-.83c.16,0,.07-.25.14-.34A6.07,6.07,0,0,0,121.1,35c.2,0,.12-.21.36-.17.74-1.42,3.33-1.39,4.58-1.42-.06.31-.44.33-.65.48-.44.31-.73.76-1.14,1.06-1.16.88-2.76,1.29-3.94,2.23-.28,1.33-2.75,1.88-2,3.44a1.82,1.82,0,0,0,1,.7c.11,0,.17-.11.31-.11.62,0,1,.48,1.67.41.12,0,.1-.18.22-.22,0-.26-.25-.12-.11-.31.37-.21.81.13,1.21.35s.88.58,1.34.78c.07.53.56.5.65,1,.43.45,1,.24,1.6.36s.86.86,1.43,1a7.39,7.39,0,0,0,1,1.79,3.34,3.34,0,0,0,1.58-.67c.12-.08.15-.25.27-.36.34-.28.86-.39,1.08-.6,1.13-1.08,1.07-3,2.15-4,.3-.09.46,0,.64-.09,0-.3-.37-.11-.6-.11.49-.59,1.36-1.56,2.42-1.18,0,.09,0,.18.09.18-.21,2.46-2.75,3.3-3.51,5.39-.13.06-.16.18-.36.18-.28.51-.32,1.16-.63,1.51,0,1.16-1,2-1.59,2.93a4.37,4.37,0,0,0,0,2.18c.07.17.26.28.33.47,1.45.22,2.37-.31,3.82.12,1.48-2,3.51-3.34,5.32-4.87l.38-.05c.62-.44.55-1.4,1.38-1.68a11.42,11.42,0,0,1,1.81-1.8c.21.07.28,0,.5-.07.87-1,1.12-2.77,2.6-3.13.61.89-.75,1.87-1.45,2.13a4.41,4.41,0,0,0-.41,1.67,10.17,10.17,0,0,1-2.85,3.11c-.11.32-.14.69-.54.78-.26.91-.1,1.92-.37,2.89a2.32,2.32,0,0,0-.72,2.29c.27.6,1.48.78,2.28.59a3.68,3.68,0,0,0,1.23-.88c.86-.79,1.32-1.86,2.17-2.49.08-.06.14.07.2,0s.15-.28.41-.25c.87.58,2-.13,3.09,0,.22,0,.05-.27.29-.24,0,.38.25,0,.46.07s.26.41.46.52c-.4.75-2.52,1.38-1.34,2.44.64-.14,1-.89,1.48-1.43.73-.81,1.33-2,1.88-2.71.24-.05.26-.26.55-.27.1-.13-.11-.18,0-.33.52-.36,1.25-.57,1.24-1.33.7-.47,1.16-1.08,1.62-1.32.73.27,1.12,1,2.18.86a1.72,1.72,0,0,0,.52,1c0,1-.2,2.16-.14,3.17.23.34.48.19.82.34.37-.17,1.12-.21,1.08-.6.86-.3,1-1.6,2.14-1.33.09.85-1.25,1-1.5,1.76-.63-.1-.77.38-.8.75-.42,0-.33.4-.78.37-.08,0,0,.12,0,.2-1.27-.1-2.55.86-3.64,1.21-.19.41-.52,1.82.42,1.62.07.32.32.37.65.49a15.13,15.13,0,0,1-.34,1.73c-.33,0-.66-.14-.81.17-.14-.51-.59-.39-.86-.59-.22.19-.62.25-.84.44a3,3,0,0,0,.44,1.3c-1.29,1.22-1.46,4.12.81,4.46a5.34,5.34,0,0,0,1,1.4c.65-.48,1.61-.43,1.77-1.21a2.13,2.13,0,0,1,1.68.93c.49-.15.68.09,1.1,0-.19.27.12.85.39,1a2.37,2.37,0,0,1-.4.83c0,.62.62.75.66,1.52,0,.23-.21.29-.11.59.54.84.33,1.33,1,1.92a8.47,8.47,0,0,0-1.21.55,2,2,0,0,0-.4,1.74c.09.84.69,1.3,1.09,1.84a1.76,1.76,0,0,0,.4,1.5c-.1.17,0,.51.05.76.19.22.61.14.6.63.11.1.35,0,.47.13-.12.2,0,.23,0,.58-.27,0-.53-.08-.58,0s-.08.2,0,.2c-.14,0-.31-.48-.66-.1,0-.29,0-.29,0-.52-.35-.1-.35-.26-.65-.49a2.45,2.45,0,0,0-2,2c.36.61.87,1.38,1.81,1a14.93,14.93,0,0,0,2.45.49c.18,0,.11-.14.17-.21.3.41.87-.46,1.33-.12-.05.67-.81,1.07-.53,1.75s1.64.06,2.1.74c0,.15,0,.38-.05.52.15.42.67.57.9.91s.13.47.28.67a10,10,0,0,0,1,1,9.53,9.53,0,0,0,2.06.94,6.24,6.24,0,0,0,1.51.62c1.12-.41,1.55,1.07,2.67.66a16.24,16.24,0,0,1,3.9,2.56c1.87.26,3.17,1.3,5.32,1.19a6.41,6.41,0,0,1,1.12.62c0,.13,0,.25.05.38a1.15,1.15,0,0,0-.22.22c-.38.11-.59,0-.91,0a7.89,7.89,0,0,0-3.42-1.46,7.33,7.33,0,0,0-2.56-.74c-.39,0-.74.13-1.08.09s-.52-.24-.81-.28c-.74-.09-1.12.11-1.7-.15-.11,0-.17-.21-.3-.28a10.71,10.71,0,0,1-2.19-.92c-1,.06-1.44-.54-2.5-.36-.79-.31-1.75.45-2.68.63-.25,0-.53,0-.77,0-.82.21-1.38.88-2.07.87-.42.57-1.32.69-1.55,1.38s.53,2.06,1.25,2.53a4.11,4.11,0,0,0,1.11,2c.2.07.49,0,.5.32.42-.15.59.41.87.2.19.37.6.45.82.79a3.8,3.8,0,0,1-.26.49c0,.22.28.12.31.34-.21,0-.13.25-.21.35a14,14,0,0,1-2.69-.33c-.14,0,.08-.27,0-.45-.54-.3-.9-1-1.66-.8a.85.85,0,0,0,0,1.61c0,.87-.58,1.5-.36,2.57,1.11.22,3,0,2.89,1.72-1.36,0-1.71-.84-2.85-1-.08-.21.06-.25,0-.45s-.41-.06-.65,0c0-.24-.15-.25-.13-.5-1.42.13-1.85-1.13-3.1-1.37,0,0-.14.11-.24.1-.5,0-1.45-.39-1.56.41-.19.19-.81.06-.92.32.16-.29-.26,0-.1-.25-.63.08-1.11.29-1.49,0-.42.26-1.39.32-1.38,1.16.44.77,1.19,1.12,1.51,2-.36-.08-.62.14-1,0s-.22.24-.4.37c-.69.51-1.7,0-2.1.68,0,.36.36.18.39.46-.45,0-1.37,0-1.44.79-.1,1,1.95,1.62,2.38,2.24,1,.28,1.93.75,2.92,1.08.25.09.54.06.79.15,1.07.37,2,1.6,3.41.88-.85-.55-1.67-.68-2.33-1.48-.28,0-.4-.13-.66-.1,0-.42-1.17-.35-1.36-1a4.59,4.59,0,0,1-.94-.77c.45-.1.62-.08.92-.32,1.2.68,1.94,2,3.52,2.15a1.88,1.88,0,0,0,1.11.56c.47.5,1.2.41,1.72.79a15,15,0,0,1,1.77,2c.34,0,.45.4.88.33l.24.36a2.59,2.59,0,0,1,.75.28,12.44,12.44,0,0,1,2.52.94c.57.27.94.85,1.55.94.34.06.68-.11,1-.07a2.24,2.24,0,0,1,1.52.75c-1.36,1.35-3-.13-4.18-.39,0-.1.19-.08.09-.27-.53-.63-1.38-.55-2-.87-1.21-.57-2.22-1.56-3.66-1.75-.63.1-.87-.3-1.46-.25-.76-.44-1.81-.84-2.63-1.31a13.69,13.69,0,0,0-1.4-.32c-.38-.12-.82-.36-1.15-.42a7.92,7.92,0,0,1-1.1,0c-.47-.15-.81-.62-1.28-.85a11.38,11.38,0,0,0-1.15-.36c-.79-.27-1.61-.6-2.52-.94s-1.21-.61-2-.43a1.18,1.18,0,0,1-.57.53.35.35,0,0,1-.13-.43,6,6,0,0,1-1.32.18A3.38,3.38,0,0,1,143,108.9c.08.38-.4.8-.36,1.14-.42.23-.91.41-1,.86-.13,0,0-.28-.22-.23-.09.3.23.67-.33.88.15,0,.2.19.4.14,0,.14-.16.21-.13.41s.52,0,.85.07c.52.4.68,1.25-.41,1.22-.27-.26-.27-.6-.28-1.06-.34,0-.45.19-.67.29,0,.27.23.42.09.63-.15,0-.05-.34-.18-.36-.31.18.08.33.13.5-.25,0-.19.26-.26.42-1.32-.14-2,.67-1.83,1.67a.72.72,0,0,1-.91,0c-.45.29-1.17.7-1.64.23-1,.11-1.1.86-1.84,1.15-.23.62.15,1.42-.37,2a2.78,2.78,0,0,1-3.65-1.23,2.22,2.22,0,0,0-1.24.36c-.51-.44-1-1.65-1.8-.91-1.07,1-1.15,3.54-2.22,4.44a2.58,2.58,0,0,1-.4,1.34,1.15,1.15,0,0,1-1.1,0c-.42-1.11.53-1.87.25-2.87-.7-.2-.79.46-1.23.88s-.74.46-.93.78-.16.82-.51,1c-.74,0-2,.24-2.6-.16-.9.66-1.66,1.43-2.47,2.15a1.45,1.45,0,0,0-1,.41c-.36.09-.54,0-.89.06s-.33.43-.78.43c-.23.21-.23.63-.63.6-.07-.36.12-.51.22-.74.8,0,1.21-.33,1.22-.94-.82-.51-.92-2-2.3-1.75,0-.08,0-.17,0-.25-1-.24-1.77-.7-2.77-.9a6.56,6.56,0,0,1,.17-.67c-.66-1-1.67-1.44-2.39-2.31a7.23,7.23,0,0,1-1.57-.62c0-.28.33-.21.26-.49a3,3,0,0,1-.64-1.85c-.19-.08-.42-.09-.55-.24a.87.87,0,0,1,.14-.8c-.08-.16-.28-.17-.47-.19a1.87,1.87,0,0,0-.63-2.17c.15-.2.13-.54.28-.75a15.35,15.35,0,0,1-.91-2.84c-.24-.64-.9-2.35-1.5-2.49a5.19,5.19,0,0,0-1.84.25,15.63,15.63,0,0,0-1.9.26c-.42.17-.59.7-.85.83a1.39,1.39,0,0,1-1.8-.46c-.49.22-.7.65-1.1.93,0,.94-1,1.11-1.3,1.79.11.56-.24.76-.28,1.2-.7.25-1,.8-1.36,1.35s-.54,1.18-.86,1.22a.67.67,0,0,1-.69-.74c0-.28.52-.9.6-1.25a9,9,0,0,1,.22-1.19,3.3,3.3,0,0,1,1.26-1.66c.24-.64-.13-2.09.66-2.15.33,0,.41.33.72.48,1.06-.25,1.14-1.25,2.67-1.15.22,0,0-.21.24-.16,0,.4.34.44.76.35,0,.17-.23.09-.23.22.58.15.9-.37,1.28-.56s.73-.09.78-.37c-.13-.41-.58-.59-.47-1.09-.63-.4-2.45-.87-2.37.13-.32-.14-.5-.48-.8-.66-.81-2.79,1.07-3.76,1.21-5.65-1-1.58-4-.06-5.54.45-.1,0,0-.06,0-.13-1,.89-3.4.94-3.27,2.45a2.93,2.93,0,0,1-2,.41c-.73-1.08.46-1.93,1.54-1.89.27,0,.44.19.67.17.63-.07,1-.62,1.61-.94.9-.49,1.9-.57,2.57-1a9.3,9.3,0,0,1,2.16-1.2,4.82,4.82,0,0,0,1-2.9,15.79,15.79,0,0,0-.64-2.69c-.16-.93.69-1.25,1.23-1.85-.14-1,.94-1.69.8-2.62-.08-.47-.47-.85-.51-1.35,0-.34.32-.7-.19-.88-.21.14.23.1,0,.26C95,84.18,95,83.7,95,83.4c.25,0,.28.07.24.35.31,0,.24-.38.52-.46.42.4.41.56.88.78,0,.13-.24.09-.16.28.91-.71.2-1.77.11-2.91.83-.34.34-1.67,1.57-1.7a5.59,5.59,0,0,0,.57-1c-.67-1.12-2.56-.62-3.43-1.46a12.7,12.7,0,0,0-3.17-.07c-.18-.21-.4-.37-.59-.57-.17-.61.17-.85.34-1.2.6-.47,1.18-.21,1.92-.14A10.33,10.33,0,0,0,97.64,75a1.2,1.2,0,0,0,.44-.51c.09-.23-.11-.28-.14-.56.82,0,1.46-1.71.49-2.07.07-.34.24-.6.32-.94a2.41,2.41,0,0,1-.53-2.38c0-.13-.19-.1-.22-.23-1.09.41-2.08-.27-3,.55-.09,0,0,.08,0,.19-.17.07-.15-.11-.27-.09.07.13-.34.25-.45.51s.1.88.22.23c.11.51-.38.81-.6,1.18,0,.16.12.18.22.23-.37-.06-.09.44-.07.39-.09.29-.29.37-.43.64.21.29-.06.61-.28.75,0,.17.15.15.28.16-.21,0-.42.4-.78.43-.6,0-.55-.64-1-1-1-.87-3-.53-4.27,0a5.07,5.07,0,0,0-1,.4.2.2,0,0,0,.16.18c-.27.11-.6.58-.92.83-1-.54.16-1.81-.45-2.77a2.41,2.41,0,0,1-1.26-1.7c-.7-.16-1.06-.75-2-.63a2.69,2.69,0,0,0-2.73-1.1c-.06-.13-.17-.19-.24-.29.28-.83-.18-1.65,0-2.51-.45-.71-1.22-1-1.77-1.56-1.33-.14-1.48.88-2.22,1.21,0-.25,0-.37-.22-.23,0-.76.38-1.69.34-2.62A10.67,10.67,0,0,1,75,60.52c0-.79.49-1.18.15-1.7a.68.68,0,0,0-.87-.2.54.54,0,0,1-.41-.2c-.23.11.1.23-.24.16-.15,0,.05.17.14.11a.49.49,0,0,1-.65-.1,1.09,1.09,0,0,0-.05-.77c1-.46,1.49-1.29,2.32-1.87,0-.34.13-.52,0-.78s-.54-.19-.89-.39-.47-.73-.79-1.05c0-.26.25-.3.1-.66.31-.5,1-.72,1.39-1.16.32-1.53,1-2.8,1-4.58a5.88,5.88,0,0,0,.3-4.36,2,2,0,0,0-.12-.37c-.34-.7-1.33-1-1.34-1.81s.93-.92,1.47-1.44c.07-.82-.65-1.17-.6-2,.24-.09.22-.17.5-.13a2.66,2.66,0,0,0,1.22,1.31C77.39,38.65,77.48,38.54,77.53,38.89Zm77.28,67.92c.06.32.44.08.52,0l0-.25C155,106.68,155,106.75,154.81,106.81ZM81.86,60.27c0-.08.07-.13,0-.26a.56.56,0,0,1-.39,0c.09.2-.2.12-.15.28C81.59,60.07,81.58,60.22,81.86,60.27Zm11,47.41a.24.24,0,0,0-.22.29C92.89,108,93,107.87,92.9,107.68Zm.89-.58a.25.25,0,0,0-.22.29C93.71,107.35,93.86,107.31,93.79,107.1ZM95.12,106c-.13,0-.77-.08-.75.16C94.73,106.09,94.93,106.23,95.12,106ZM84.82,32.85c0-.29-.65-.16-.63.08C84.44,32.85,84.73,33,84.82,32.85Zm12.39,73.33-.26,0,0,.19C97.15,106.4,97.25,106.34,97.21,106.18ZM90.9,35.29a.55.55,0,0,0,.15,1.08c0,.13-.18.15,0,.26a1.3,1.3,0,0,0,.82-.12c0-.3-.18-.26-.31-.34.71-.45,0-1.16-.61-1.14C90.93,35.12,91,35.26,90.9,35.29Zm10.32,44.6c-.07,0-.1,0-.14-.11a.39.39,0,0,0-.33.43C101,80.43,101.26,80.19,101.22,79.89Zm1.35,6.91a.13.13,0,1,0-.25,0C102.46,86.92,102.4,86.81,102.57,86.8ZM101.46,77a11.22,11.22,0,0,1,.27,1.51c0,.69-.16,2.23.71,1.83.62-.28.1-2.34,0-3.09-.43-2.32-.07-4.37-.47-6.18.33-.8-.35-2.21-.17-3-.55-.49-.51-1.77-1.41-1.81.09,1.38.88,3.07,1.12,4.75,0,.16-.3-.08-.23.23C101.74,73,101.09,75,101.46,77Zm-1.15-8.29c.2,0,.18-.16.14-.34l-.25,0A.44.44,0,0,0,100.31,68.67Zm2.64,13a.91.91,0,0,0-.18-.81C102.37,80.93,102.18,81.92,103,81.65ZM100,59.56l0-.19c-.09-.08-.39-.06-.37.11S99.87,59.74,100,59.56Zm7.44,49.38c-.17-.12-.4,0-.28.3C107.38,109.23,107.47,109.12,107.45,108.94Zm-3-26.6c.17,0,.19-.11.15-.28-.12,0-.15,0-.26,0A.39.39,0,0,0,104.47,82.34Zm-1.12-19.19c0-.24-.35-.2-.33,0S103.23,63.31,103.35,63.15Zm3.45,23c.17,0,.2-.11.15-.27-.16,0-.26.06-.22.22C106.77,86.09,106.8,86.09,106.8,86.14Zm3.42,16.74-.25,0a2.17,2.17,0,0,0,0,.25C110.21,103.17,110.28,103.08,110.22,102.88Zm-1.75-48.3a.34.34,0,0,1,.17-.22c-.09-.18-.19-.36-.27-.54-.2,0-.22.09-.37.11C108.06,54.28,108.18,54.53,108.47,54.58Zm17.39,37c-.24,0-.26.14-.21.35C125.84,91.87,125.94,91.78,125.86,91.55Zm14,21.79a.4.4,0,0,0,0-.33c-.14,0-.23,0-.23.16S139.71,113.38,139.85,113.34ZM132.3,45.07a.34.34,0,0,0-.1-.24c-.17,0-.2.12-.16.28Zm1-2.26c-.05.24-.28.36-.3.62C133.24,43.39,133.52,42.89,133.27,42.81Zm13,27.79A15.53,15.53,0,0,0,140.92,77a6.2,6.2,0,0,0,.08,2.89c.16.39.54.8.75,1.19s.36,1,.85,1c1.12-1.09.91-3,1.87-4.13.26-.31.67-.49.93-.77.7-.77,1.22-1.79,1.89-2.65a13.64,13.64,0,0,1,2.5-2.86.68.68,0,0,1,.31-.56c.12-.81.16-2.08-.43-2.65C148.25,68.69,147.25,69.82,146.23,70.6Zm1.32,25.29c0-.15-.05-.24-.16-.24s-.1.08-.11.15S147.36,96,147.55,95.89Zm-1.87-17.15a.2.2,0,0,1,.11-.14c0-.27-.12-.39-.37-.34A.27.27,0,1,0,145.68,78.74ZM150,54.28c-1-.4-1.88.61-1.9,1.62-.18,0,0,.31-.28.3-.21,1.53-2.58,2.19-1.46,3.87.15.1.41,0,.54.19a.31.31,0,0,0-.3.17c.13.09.42,0,.64,0,0-.24-.23-.09-.29-.22a9.82,9.82,0,0,0,2.53-3.57c0-.2-.09-.22-.11-.37A1.44,1.44,0,0,0,150,54.28Zm2.33,44.16c0-.16-.06-.26-.22-.22a.33.33,0,0,1,0,.2C152.18,98.42,152.23,98.49,152.35,98.44ZM152.1,98l.25,0c.06-.25.22-.5,0-.71A.49.49,0,0,0,152.1,98Zm.58-6.91a.72.72,0,0,0,.06-.52c-.3-.1-.91,0-.85.37A1.09,1.09,0,0,0,152.68,91.05Zm0-1.87c.23.55,1.14.12,1.11-.35a2.25,2.25,0,0,0-1.25-.21c-.11.12-.16.3-.34.37C152.15,89.44,152.61,89.51,152.68,89.18ZM153.82,97c0-.17-.06-.27-.22-.23,0,.09-.07.1,0,.2S153.7,97,153.82,97Zm.05-1c.13-.11.15-.47-.18-.36C153.72,95.72,153.71,95.93,153.87,95.91Zm.44-1.48a.48.48,0,0,0-.07-.5L154,94A.32.32,0,0,0,154.31,94.43Zm-1.74-16.71c0-.13.16-.14.08-.34C152.34,77.22,152.13,77.75,152.57,77.72Zm-.33-4.66c-.08-.07-.23,0-.39,0C151.81,73.45,152.31,73.37,152.24,73.06Zm3.48,11.12c0-.1-.14,0-.19,0-.25-1.56.29-3.65-.83-4.59-.45.54-.14,1.18-.28,1.72,0,.09-.15.13-.16.21,0,.26.08.5-.08.79s-.94.63-.6,1.24c.31.14.72.14.79.6,0,.2-.05.38-.27.43.57.51.93,1.66,1.93,1.34C156.12,85.17,155.37,84.34,155.72,84.18ZM150,53.64c-.18,0-.42,0-.49.13a1.11,1.11,0,0,0,0,.19C149.66,53.83,150.1,54.05,150,53.64Zm4.2,22.76a1.17,1.17,0,0,1-.11,1c.4.4-.06,1.85.71,1.9.65-1,.28-2.77.32-4.23a2.28,2.28,0,0,1-1.6.61C153.5,76.13,154,76,154.19,76.4ZM153,54.18a1.31,1.31,0,0,0,.06-.91c-.3,0-.39.16-.61.22-.2.86-1.18,1.15-1.26,2.1,0,0,0,.09,0,.13C152,55.32,152,54.34,153,54.18Zm1.18,2.48a1.33,1.33,0,0,0-1.83-1.1C151.49,56.67,153.57,58.12,154.22,56.66Zm6,53.78c-.05-.35-.13-.67-.47-.64C159.89,110,159.88,110.45,160.21,110.44Zm-4.53-37.73c-.35,0-.36.45-.18.6C155.65,73.15,155.82,72.93,155.68,72.71Zm-.44-3.16c-.09,0-.14-.08-.27,0l0,.25C155.18,69.76,155.28,69.71,155.24,69.55Zm-.46-13.48c.11-.3,0-.82-.42-.72C154.31,55.62,154.45,56.07,154.78,56.07Zm.14,0c-.43,0-.47.56-.28.82A.72.72,0,0,0,154.92,56.11Z" fill="#d4000d" fill-rule="evenodd"/><path d="M94.69,69.52c-.08.2,0-.23-.06-.38.06,0,.19.07.19,0S94.69,69.38,94.69,69.52Z" fill="#d4000d" fill-rule="evenodd"/><path d="M74.94,64.72c-.1,0,0-.09,0-.19.27-.13.19.19.41.14C75.3,64.87,74.93,64.54,74.94,64.72Z" fill="#d4000d" fill-rule="evenodd"/><path d="M97,73.91c.1-.09.21,0,.45-.07,0,.2-.14.24-.28.3S97.09,73.9,97,73.91Z" fill="#d4000d" fill-rule="evenodd"/><path d="M100.77,21.41c.17-.18.4.21.5.38C101.11,22,101,21.41,100.77,21.41Z" fill="#d4000d" fill-rule="evenodd"/><path d="M105.21,34.85c-.08-.2.48-.24.42-.71.14.27.11-.33.45-.45.27.09.13.27.27.48-.21-.05-.34.23-.16.28C106,34.56,105.58,35,105.21,34.85Z" fill="#d4000d" fill-rule="evenodd"/><path d="M107,33a1.38,1.38,0,0,0,.16-.73c.13,0,.16-.18.36-.18,0-.15.1-.15,0-.32,1-.56.54-1.94,1.46-2.53.31-.2.7-.11,1-.39.3-.51.18-1.34.89-1.54a.27.27,0,0,0,.21.16,2.08,2.08,0,0,1-.86,1.67c-.06.57.31.68.29,1.19,0,1-1.51,1.05-2.37,1.48-.07.55-.9.72-.87,1.16C107.17,32.94,106.94,32.83,107,33Z" fill="#d4000d" fill-rule="evenodd"/><path d="M134.21,36.55c-.74,1.12-2.46,1.51-3.62,2.31-.09.23-.31.22-.46.33-1.13.79-1.74,2.32-2.95,2.47a2.62,2.62,0,0,0,.58-1.37,8.67,8.67,0,0,1,2.43-1.56c-.16-.21-.32-.51-.39-.47C130.3,37.19,132.33,36.78,134.21,36.55Zm-3.71,1.62,0,.25A.13.13,0,1,0,130.5,38.17Z" fill="#d4000d" fill-rule="evenodd"/><path d="M140.36,34.86c0-.07,0,0,.06,0,.19-.08.13-.35.25-.48a8.09,8.09,0,0,1,2.45-1c.39-.67,1.42-.47,1.93-.91.35.44-.5.25-.48.71a2.29,2.29,0,0,0-1.23.43c-.13,0-.19-.11-.28-.16s-.19.12-.15.28c-1,.31-1.12,1.17-2.26,1C140.58,34.79,140.53,35,140.36,34.86Z" fill="#d4000d" fill-rule="evenodd"/><path d="M154.5,103.69c.18,0,.54,0,.91.07.42.87,1.48.89,2,1.66,0,.12-.12.18-.09.33-.05,0-.07,0-.13,0-.23,0,0-.09-.16-.24-1.08-.12-1.59-1-2.38-1.35a.53.53,0,0,0,0-.38S154.57,103.68,154.5,103.69Z" fill="#d4000d" fill-rule="evenodd"/><path d="M161.16,104.25c0-.13.16-.11.09-.27s-.07-.06-.08-.12-.24,0-.24.16c-1.08-.56-1.79-1.85-2.93-2.1,0-.69-.95-.25-.3-.74a.31.31,0,0,0,0,.2c.1,0,.25,0,.25-.1,2.72,1.17,4.77,3.22,7.18,4.81a.9.9,0,0,0,.28.6c-1.05-.07-2-1.44-3.28-1.73C161.79,104.72,161.68,104.2,161.16,104.25Z" fill="#d4000d" fill-rule="evenodd"/><path d="M152.67,29.28c-.14,0-.16.07-.25.1s.07.11.15.11c-.21,0-.66.11-1,.2.16-.32.4-.13.66-.28.65-.4.78-1.35,1.8-1,0,.08,0,.11.08.12,0,.67-.72.86-1.41,1C152.54,29.54,152.78,29.41,152.67,29.28Z" fill="#d4000d" fill-rule="evenodd"/><path d="M158.7,43.47c-.07,0,0-.06,0-.07-.08-.18-.19.07-.31.05.15-.38-.13-.89-.14-1.47.36-.53,1-.07,1.48,0A13.66,13.66,0,0,1,158.7,43.47Z" fill="#d4000d" fill-rule="evenodd"/><path d="M167.67,108.44c.37-.17.64.45,1,.57a.9.9,0,0,1-.55.21c-.14,0-.1-.32-.3-.29C167.77,108.75,167.93,108.46,167.67,108.44Z" fill="#d4000d" fill-rule="evenodd"/><path d="M169.37,109.55c-.13.16-.29-.11-.57,0-.09-.35.27,0,.35-.24.26.13.4.42.6.62C169.6,109.85,169.39,109.83,169.37,109.55Z" fill="#d4000d" fill-rule="evenodd"/><path d="M169.88,109.94a4.07,4.07,0,0,0,1.7.66,15.79,15.79,0,0,0,2.84,1.86c0,.29.65.46.4.59C173.22,112,171.05,111.31,169.88,109.94Z" fill="#d4000d" fill-rule="evenodd"/><path d="M163.52,59.11c-.25,0-.22,0-.39,0,.1-.1.45-.35.31-.56,0-.21.39.12.38,0C164,58.69,163.59,58.91,163.52,59.11Z" fill="#d4000d" fill-rule="evenodd"/><path d="M169.15,98.17c-.09-.11.52,0,.76,0C169.7,98.42,169.5,98.2,169.15,98.17Z" fill="#d4000d" fill-rule="evenodd"/><path d="M175,113.16c0-.1.08,0,.19,0,.82.39,1.36,1.15,2.31,1.36.27.27.69.34.88.72,2.08,1.1,3.94,2.78,6,4.06.36.23.93.38,1,.9-.86.22-1.09-.4-1.41-.9C180.93,117.21,177.79,115.39,175,113.16Z" fill="#d4000d" fill-rule="evenodd"/><path d="M176.37,99.62c-.14.19-.1.64.16.69a4.27,4.27,0,0,1-.75.1c-.14-.47-.43-.41-.83-.4a1.13,1.13,0,0,0,0-.45,1.28,1.28,0,0,0-.9.06c.24-.67.91-.07,1.43.06.13,0,.35-.3.28-.3C175.89,99.26,176.25,99.48,176.37,99.62Z" fill="#d4000d" fill-rule="evenodd"/><path d="M48,103.67c-.48-1,1.18-1.57,1.51-.73S48.48,104.75,48,103.67Z" fill="#d4000d" fill-rule="evenodd"/><path d="M63.58,74c0-.56.53-.68,1-1.1a4.27,4.27,0,0,1,2.37-1.49,1,1,0,0,1-.64.48c-.05.21.21,0,.16.23-.43.18-.61.76-1.08,1.06-.21.13-.53.2-.79.36S64.09,74.11,63.58,74Z" fill="#d4000d" fill-rule="evenodd"/><path d="M74.86,105.93c-.28-1.58,2.45-1.65,2.51,0C77.42,107.05,75.12,107.4,74.86,105.93Z" fill="#d4000d" fill-rule="evenodd"/><path d="M70.31,68.59c.72-.68.56-1.8,1.67-2,.08,0,.23,0,.32,0,.7-.25,1.17-1.13,2-1.24-.12.79-1.37.74-1.61,1.44-.08,0-.11-.1-.2-.1A3.09,3.09,0,0,1,70.31,68.59Z" fill="#d4000d" fill-rule="evenodd"/><path d="M119.12,2.74A1.93,1.93,0,0,1,121.27.05c1.43.33,1.35,2.23.62,3.08A1.58,1.58,0,0,1,119.12,2.74Zm1.12-1.25c.06-.22-.4-.11-.39,0S120.05,1.56,120.24,1.49Zm.26.93.12,0s0-.08.06-.07,0-.09,0-.13-.07,0-.07-.05h-.13s0,.08,0,.08l0,.12S120.5,2.36,120.5,2.42Z" fill="#d4000d" fill-rule="evenodd"/><path d="M130.51,31.33c.28,1.73-1.47,1.87-2.36,1.1A1.72,1.72,0,0,1,130.51,31.33Z" fill="#d4000d" fill-rule="evenodd"/><path d="M137.24,35.62c.24.22-.39.3-.68.22.12-.29.43-.12.72-.36s.77-1.32,1.29-.5C138.84,35.41,137.46,36,137.24,35.62Z" fill="#d4000d" fill-rule="evenodd"/><path d="M141.32,52c.19-.56,1-.16,1.65-.23C142.72,52.25,141.67,52.1,141.32,52Z" fill="#d4000d" fill-rule="evenodd"/><path d="M146.55,50.18c.85-.54.69-1.85,1.82-2.18.95.82-.52,1.84-1.28,1.92-.08.06-.24.08-.15.27C146.79,50.22,146.73,50.11,146.55,50.18Z" fill="#d4000d" fill-rule="evenodd"/><path d="M150.11,36.86c.14,1.57-1.6,1.73-2.27,2.7a.17.17,0,0,0-.31.11c-.22-.38.56-.93.86-1.28C148.38,37.51,149.27,36.37,150.11,36.86Z" fill="#d4000d" fill-rule="evenodd"/><path d="M159.4,47.11c.45-.37.49-1.55,1.24-1.33A1.19,1.19,0,0,1,159.4,47.11Z" fill="#d4000d" fill-rule="evenodd"/><path d="M180.73,73c.87-.93,1.83.74.62.76C181,73.72,180.77,73.53,180.73,73Z" fill="#d4000d" fill-rule="evenodd"/><image width="170" height="152" transform="translate(39.95 43.3)" opacity="0.5" xlink:href="OF_white-redgreensplaccs1.png" style="mix-blend-mode:multiply"/><path d="M99.05,59.93A56.7,56.7,0,0,0,104.87,173c31.31,0,55.31-21.06,56.7-56.7,1.43-37,26.09-64.13,26.09-64.13Zm42.13,43.62A14.34,14.34,0,0,1,131,107.76H109.73a2.84,2.84,0,0,0-2.84,2.84v.46h19.63a13.18,13.18,0,1,1,0,26.36H109.73a2.84,2.84,0,0,0-2.84,2.83v2.1a14.18,14.18,0,1,1-28.35,0V103.46A23.57,23.57,0,0,1,101.43,79.9L130.59,79a14.39,14.39,0,0,1,10.59,24.57Z" fill="#fff"/></g></g></g></svg>