<svg xmlns="http://www.w3.org/2000/svg" xmlns:xlink="http://www.w3.org/1999/xlink" viewBox="0 0 170 152"><title>OF_white-shadow</title><g style="isolation:isolate"><g id="b5b49380-e062-4eaf-a50b-f5f89f93093c" data-name="Layer 2"><g id="68229818-2161-4c61-9a24-b981001e2fb8" data-name="Layer 1"><image width="170" height="152" opacity="0.5" xlink:href="OF_white-shadow1.png" style="mix-blend-mode:multiply"/><path d="M59.1,16.63a56.7,56.7,0,0,0,5.82,113.09c31.31,0,55.31-21.06,56.7-56.7,1.43-37,26.09-64.13,26.09-64.13Zm42.13,43.62a14.34,14.34,0,0,1-10.17,4.21H69.78a2.84,2.84,0,0,0-2.84,2.84v.46H86.57a13.18,13.18,0,1,1,0,26.36H69.78A2.84,2.84,0,0,0,66.94,97v2.1a14.18,14.18,0,1,1-28.35,0V60.16A23.57,23.57,0,0,1,61.48,36.6l29.16-.92a14.39,14.39,0,0,1,10.59,24.57Z" fill="#fff"/></g></g></g></svg>